<?xml version="1.0" encoding="utf-8"?>
<!-- Generator: Adobe Illustrator 21.1.0, SVG Export Plug-In . SVG Version: 6.00 Build 0)  -->
<svg version="1.1" id="Layer_1" xmlns="http://www.w3.org/2000/svg" xmlns:xlink="http://www.w3.org/1999/xlink" x="0px" y="0px"
	 viewBox="0 0 27.3 27.9" style="enable-background:new 0 0 27.3 27.9;" xml:space="preserve">
<style type="text/css">
	.st0{fill:#FC0000;}
</style>
<path class="st0" d="M12.5,6.2c-0.1-1.3-0.5-2.4-1.2-3.4C12.1,1.9,13,0.9,13.8,0c0.8,0.9,1.6,1.9,2.5,2.8c-0.7,1.1-1.1,2.2-1.2,3.5
	l0,0c0.6-0.9,1.4-1.6,2.4-2.1h0.1c0.5,0.6,1,1.1,1.5,1.7l0,0C19,6,18.8,6,18.7,6.1c-0.9,0.5-1.6,1.2-2.1,2c-0.4,0.4-0.5,0.9-0.7,1.4
	c-0.3,0.9-0.4,1.8-0.4,2.7c0,0.8,0.2,1.6,0.6,2.4c0.2,0.5,0.6,0.9,1,1.2c0.7,0.5,1.5,0.6,2.4,0.4c0.6-0.2,1-0.5,1.5-0.8
	c0.6-0.4,1.1-1,1.5-1.6c0.6-0.9,1-1.8,1.2-2.8c0.1-0.7,0.2-1.4,0.1-2.1c-0.1-1.4-0.6-2.7-1.3-3.9c-0.5-0.9-1.1-1.7-1.7-2.4l-0.1-0.1
	c0,0,0,0-0.1-0.1c0.1,0,0.2,0,0.2,0.1c0.6,0.4,1.2,0.9,1.7,1.4c0.8,0.6,1.4,1.3,2.1,2.1c0.9,1.1,1.5,2.4,2,3.8
	c0.2,0.8,0.4,1.5,0.5,2.3c0.1,0.6,0.2,1.2,0.2,1.8c0,0.3,0,0.6,0,0.9c0,0.5-0.1,0.9-0.1,1.4c-0.1,0.7-0.2,1.4-0.4,2
	c-0.5,1.7-1.3,3.4-2.4,4.8c-1.1,1.5-2.5,2.6-4.2,3.4c-1.1,0.6-2.3,1-3.5,1.2c-1.1,0.2-2.1,0.3-3.2,0.3c-2.2,0-4.3-0.6-6.3-1.7
	c-2.2-1.2-4-3-5.3-5.2c-0.7-1.3-1.3-2.7-1.6-4.1c-0.2-1-0.3-2.1-0.3-3.1c0.1-2.7,0.9-5.2,2.5-7.5c1.1-1.5,2.4-2.8,4-3.8l0,0
	c0,0,0,0,0.1,0c0,0,0,0,0,0.1C5.9,3.4,5.2,4.5,4.7,5.7C4.3,6.6,4,7.5,3.8,8.5c-0.2,1.5-0.1,2.9,0.6,4.3C4.8,13.6,5.3,14.4,6,15
	c0.6,0.6,1.4,1,2.2,1.2c1,0.2,1.8-0.1,2.5-0.7c0.3-0.3,0.5-0.7,0.7-1.1c0.4-0.9,0.6-1.9,0.5-2.9c-0.1-1.1-0.4-2.2-0.9-3.2
	c-0.4-0.9-1-1.5-1.8-2C9,6.2,8.8,6,8.5,5.9c0,0,0,0-0.1,0c0.1-0.1,0.2-0.2,0.2-0.3c0.4-0.5,0.9-1,1.3-1.4c0.1-0.1,0.1-0.1,0.2,0
	c0.5,0.3,1,0.6,1.4,1C11.9,5.5,12.2,5.8,12.5,6.2C12.4,6.2,12.5,6.2,12.5,6.2L12.5,6.2z"/>
</svg>
